<svg xmlns="http://www.w3.org/2000/svg" viewBox="0 0 720 360" role="img" aria-labelledby="title desc">
  <title id="title">Hui Chat</title>
  <desc id="desc">Hui Chat speech bubble logo</desc>
  <defs>
    <linearGradient id="bubble" x1="0" y1="0" x2="1" y2="1">
      <stop offset="0" stop-color="#7dd3fc"/>
      <stop offset="0.5" stop-color="#818cf8"/>
      <stop offset="1" stop-color="#c084fc"/>
    </linearGradient>
    <filter id="shadow" x="-20%" y="-20%" width="140%" height="150%">
      <feDropShadow dx="0" dy="10" stdDeviation="12" flood-color="#111827" flood-opacity=".28"/>
    </filter>
  </defs>
  <g filter="url(#shadow)">
    <path fill="url(#bubble)" d="M86 42h548c28 0 50 22 50 50v154c0 28-22 50-50 50H287l-92 45 26-45H86c-28 0-50-22-50-50V92c0-28 22-50 50-50Z"/>
    <path fill="#0f172a" opacity=".14" d="M287 296h347c28 0 50-22 50-50v-20c-120 52-317 77-463 58l-26 57 92-45Z"/>
  </g>
  <g fill="#fff" font-family="Inter,Segoe UI,Arial,sans-serif" font-weight="800" text-anchor="middle">
    <text x="360" y="185" font-size="92" letter-spacing="-4">Hui Chat</text>
    <text x="360" y="235" font-size="24" font-weight="600" opacity=".9" letter-spacing="5">CONNECT • CHAT • SHARE</text>
  </g>
</svg>
